<svg width="149" height="104" viewBox="0 0 149 104" fill="none" xmlns="http://www.w3.org/2000/svg">
<path d="M37.2914 2.37148V0H52.1612V2.37148C50.7938 2.37148 49.8111 2.58513 49.2129 3.01243C48.6146 3.43972 48.3155 4.14475 48.3155 5.12753V38.0719C48.3155 40.422 48.9138 42.2807 50.1102 43.6481C51.3066 45.0154 52.909 45.6991 54.9172 45.6991C56.9255 45.6991 58.5492 44.8231 59.7884 43.0712C61.0275 41.2766 61.6471 38.9051 61.6471 35.9568V5.12753C61.6471 4.14475 61.348 3.43972 60.7498 3.01243C60.1516 2.58513 59.1688 2.37148 57.8015 2.37148V0H68.5052V2.37148C67.1378 2.37148 66.1551 2.58513 65.5569 3.01243C64.9586 3.43972 64.6595 4.14475 64.6595 5.12753V34.9954C64.6595 44.1395 61.0489 48.7115 53.8276 48.7115C49.7683 48.7115 46.6277 47.5365 44.4058 45.1863C42.2266 42.7935 41.137 39.3965 41.137 34.9954V5.12753C41.137 4.14475 40.8379 3.43972 40.2397 3.01243C39.6415 2.58513 38.6587 2.37148 37.2914 2.37148Z" fill="#A2FF00"/>
<path d="M2.80769 52.421C3.36318 49.4727 3.89729 46.5671 4.41005 43.7042C4.96553 40.7986 5.52101 37.9144 6.07649 35.0515C6.6747 31.5049 7.23019 28.1721 7.74294 25.0528C8.29842 21.9336 8.83254 18.8357 9.34529 15.7592C9.90077 12.6826 10.4349 9.45658 10.9476 6.08095L21.3309 5.37592C20.6045 8.36697 19.8781 11.4862 19.1517 14.7337C18.468 17.9811 17.8271 21.1431 17.2289 24.2196L23.5742 23.5145C23.8733 22.019 24.151 20.5449 24.4074 19.0921C24.7065 17.5965 24.9629 16.1224 25.1765 14.6696C25.3902 13.2595 25.6466 11.8281 25.9457 10.3753C26.2875 8.87973 26.6507 7.3842 27.0353 5.88867C28.5735 5.63229 30.1331 5.44001 31.7141 5.31182C33.2951 5.14091 34.6197 5.03408 35.688 4.99135C36.7562 4.9059 37.2903 4.86317 37.2903 4.86317C36.7348 6.57234 36.1794 8.58062 35.6239 10.888C35.0684 13.1954 34.5343 15.631 34.0215 18.1947C33.5088 20.7585 33.0174 23.3223 32.5474 25.886C32.0773 28.4071 31.65 30.7572 31.2655 32.9364C30.7955 35.6711 30.3468 38.4271 29.9195 41.2045C29.4922 43.9392 29.0649 46.738 28.6376 49.6008L18.6389 50.7545C18.938 49.4727 19.1944 48.2121 19.4081 46.973C19.6644 45.6911 19.8995 44.452 20.1131 43.2555C20.5404 41.2045 20.9677 39.068 21.395 36.8461C21.865 34.6242 22.2282 32.7227 22.4846 31.1417L16.2675 31.7186C16.0965 32.5305 15.9256 33.4064 15.7547 34.3465C15.6265 35.2865 15.4556 36.2906 15.2419 37.3589C15.0283 38.4271 14.8147 39.474 14.601 40.4995C14.4301 41.4823 14.2592 42.465 14.0883 43.4478C13.8746 44.6015 13.6396 45.7552 13.3832 46.9089C13.1268 48.0626 12.8918 49.2163 12.6782 50.37L2.80769 52.421Z" fill="#A2FF00"/>
<path d="M88.8317 7.8632C87.5071 9.44419 86.567 10.8543 86.0115 12.0934C85.4561 13.3326 85.1783 14.6785 85.1783 16.1313V41.0639C85.1783 43.9268 84.6015 46.5547 83.4478 48.9475C82.3368 51.3404 80.5635 53.2632 78.128 54.716C75.7351 56.1688 72.7227 56.8952 69.0907 56.8952C67.3815 56.8952 65.6296 56.5747 63.835 55.9338C61.9976 55.3356 60.3098 54.5237 58.7716 53.4982L64.1555 49.1398C65.0955 50.5071 66.2706 51.6822 67.6806 52.665C69.0907 53.6477 70.7571 54.1391 72.68 54.1391C75.0301 54.1391 76.6965 53.3914 77.6793 51.8958C78.7048 50.4003 79.2176 48.627 79.2176 46.576V19.8488C79.2176 17.8405 79.8158 15.8536 81.0122 13.888C82.2514 11.9225 83.8323 10.2774 85.7552 8.9528L78.3843 8.8887C76.7179 8.8887 75.2865 9.18781 74.09 9.78602C72.9363 10.3415 71.7827 11.2602 70.629 12.5421L69.4753 11.5166C73.9619 6.08993 78.7475 3.37661 83.8323 3.37661H92.9978L88.8317 7.8632Z" fill="#A2FF00"/>
<path d="M85.5944 63.3164L91.1065 12.0411H101.682L102.163 16.6238H95.0483L93.8625 33.3204L92.805 44.2484H98.1569L96.9391 48.8311H92.3243L90.8181 63.3164H85.5944ZM101.874 63.3164L98.926 33.2242L97.8684 19.2517H102.355L107.066 63.3164H101.874Z" fill="#A2FF00"/>
<path d="M148.815 47.3783L142.323 47.7556L123.816 25.7184L113.734 36.5767L114.478 49.374L109.669 49.6535L107.066 4.86317L111.875 4.58366L113.325 29.5383L138.277 3.04919L145.299 2.64111L127.266 21.9868L148.815 47.3783Z" fill="#A2FF00"/>
<path d="M0 91.8212C0 91.696 0.0164627 91.4456 0.049388 91.0701C0.0823134 90.6528 0.115239 90.3607 0.148164 90.1938C2.05784 88.1491 3.68764 86.2296 5.03758 84.4353C6.42045 82.641 7.68807 80.8259 8.84046 78.9898C9.99285 77.1121 11.1288 75.13 12.2482 73.0436C13.3677 70.9155 14.6518 68.5161 16.1005 65.8456C16.8907 63.8426 17.2529 62.5073 17.187 61.8397C17.1541 61.1303 16.8413 60.8591 16.2487 61.026C15.656 61.1929 14.8493 61.6519 13.8287 62.403C12.8409 63.1541 11.7708 63.9469 10.6184 64.7815C9.49897 65.5743 8.37951 66.3046 7.26004 66.9722C6.14058 67.5981 5.18574 67.8694 4.39554 67.7859C4.39554 67.16 4.64248 66.4715 5.13636 65.7204C5.66316 64.9275 6.32167 64.1347 7.11188 63.3419C7.93501 62.549 8.84046 61.7771 9.82822 61.026C10.816 60.2331 11.7873 59.5446 12.7421 58.9604C13.7299 58.3345 14.6353 57.8338 15.4585 57.4582C16.2816 57.0827 16.9401 56.8949 17.434 56.8949C17.8291 56.8949 18.2077 56.9992 18.5699 57.2079C18.965 57.3748 19.3107 57.6252 19.6071 57.959C19.9034 58.2928 20.1503 58.6892 20.3479 59.1482C20.5454 59.5655 20.6442 60.0245 20.6442 60.5252C20.6442 61.9857 20.3479 63.5297 19.7552 65.157C19.1955 66.7844 18.4876 68.391 17.6315 69.9766C16.7755 71.5623 15.8371 73.1271 14.8164 74.671C13.8287 76.1732 12.9067 77.5502 12.0507 78.8021C11.1946 80.0539 10.4703 81.1597 9.87761 82.1194C9.31788 83.0375 9.03801 83.7051 9.03801 84.1224C10.2563 85.1656 11.4086 86.0836 12.4952 86.8764C13.4171 87.5858 14.3061 88.2117 15.1621 88.7542C16.0182 89.2966 16.6273 89.5679 16.9895 89.5679C17.648 89.5679 18.2407 89.4427 18.7675 89.1923C19.3272 88.9002 19.854 88.6707 20.3479 88.5038C20.8747 88.2952 21.4015 88.2326 21.9283 88.316C22.488 88.3578 23.1136 88.7125 23.805 89.3801C23.805 89.4218 23.6733 89.5679 23.4099 89.8182C23.1795 90.0686 22.8996 90.3816 22.5703 90.7571C22.2411 91.0909 21.8789 91.4456 21.4838 91.8212C21.1216 92.155 20.8253 92.4262 20.5948 92.6349C19.3107 93.6781 18.1089 94.1371 16.9895 94.0119C15.87 93.845 14.7835 93.4277 13.7299 92.7601C12.6763 92.0924 11.6227 91.3205 10.569 90.4442C9.54836 89.5679 8.49474 88.9211 7.40821 88.5038C6.51922 88.5038 5.86071 88.8168 5.43269 89.4427C5.03758 90.0269 4.6754 90.6945 4.34615 91.4456C4.04982 92.155 3.72057 92.8227 3.35839 93.4486C2.99621 94.0328 2.43648 94.3249 1.67919 94.3249C0.954836 94.3249 0.49388 94.1162 0.296328 93.6989C0.0987761 93.2817 0 92.6557 0 91.8212Z" fill="#A2FF00"/>
<path d="M21.7075 100.235C22.3485 99.8503 22.904 99.1239 23.374 98.0557C23.8867 96.9875 24.314 95.7697 24.6559 94.4024C25.0404 93.035 25.3182 91.6249 25.4891 90.1721C25.66 88.6766 25.7455 87.3093 25.7455 86.0701C25.7455 84.1473 25.5318 82.3099 25.1045 80.558C24.72 78.8061 24.1645 77.4815 23.4381 76.5842C24.1218 75.9005 24.6772 75.0032 25.1045 73.8922C25.5746 72.7385 25.9378 71.5208 26.1941 70.2389C26.4505 68.9143 26.6214 67.5683 26.7069 66.2009C26.7923 64.8336 26.8351 63.5517 26.8351 62.3553C26.8351 61.3725 26.8137 60.5179 26.771 59.7915C26.7283 59.0651 26.6855 58.5097 26.6428 58.1251C25.66 57.7832 24.6345 57.0782 23.5663 56.01C22.5408 54.9417 21.7716 53.7881 21.2589 52.5489C23.9936 52.848 26.5787 53.0617 29.0143 53.1898C31.4926 53.2753 33.8213 53.318 36.0005 53.318C40.658 53.318 44.4182 53.1685 47.2811 52.8694C50.144 52.5703 52.4086 52.4207 54.0751 52.4207C54.4169 52.4207 54.716 52.4421 54.9724 52.4848C55.2288 52.4848 55.4638 52.5062 55.6774 52.5489C55.421 53.0617 55.1433 54.0231 54.8442 55.4331C54.5878 56.8432 54.3314 58.3815 54.0751 60.0479C53.8187 61.7144 53.5837 63.3381 53.37 64.9191C53.1991 66.5 53.0709 67.6965 52.9855 68.5083L52.5368 68.7006C51.0413 67.5896 49.9517 66.3719 49.268 65.0472C48.6271 63.6799 48.1357 62.0135 47.7938 60.0479C47.1956 59.5779 46.4479 59.2788 45.5506 59.1506C44.6532 59.0224 43.5209 58.9583 42.1536 58.9583C41.0426 58.9583 39.9744 58.9797 38.9489 59.0224C37.9234 59.0651 37.1115 59.0865 36.5133 59.0865C36.2996 60.3256 36.1074 61.7571 35.9364 63.3808C35.8083 65.0045 35.6801 66.7351 35.5519 68.5724C35.4664 70.4098 35.381 72.3326 35.2955 74.3409C35.2528 76.3064 35.2314 78.272 35.2314 80.2375C35.2314 82.9295 35.2528 85.4933 35.2955 87.9288C35.381 90.3217 35.5091 92.4154 35.6801 94.2101L46.512 95.2997C47.1102 92.6504 48.157 90.3003 49.6526 88.2493C51.1908 86.1983 52.8359 84.2114 54.5878 82.2886L54.9724 82.4167C54.8442 83.3995 54.7587 84.3823 54.716 85.3651C54.6733 86.3051 54.6519 87.2238 54.6519 88.1211C54.6519 90.3431 54.7587 92.3513 54.9724 94.146C55.186 95.9406 55.4424 97.2866 55.7415 98.1839C55.0151 98.2694 54.2887 98.3976 53.5623 98.5685C52.8786 98.6967 52.1309 98.9317 51.319 99.2735C50.5072 99.6153 49.6312 100.085 48.6912 100.684C47.7938 101.282 46.7897 102.051 45.6787 102.991C42.0895 101.923 38.5429 101.111 35.0391 100.555C31.5353 100.043 28.3733 99.7863 25.5532 99.7863C24.1859 99.7863 22.9253 99.9999 21.7716 100.427L21.7075 100.235Z" fill="#A2FF00"/>
<path d="M67.6976 94.3852C67.6976 96.7011 66.8735 98.485 65.2252 99.7368H82.8761C84.5661 99.7368 85.8388 99.5386 86.6942 99.1422C87.5705 98.7458 88.2173 98.3807 88.6346 98.0468C86.1518 101.114 83.4916 103.012 80.6541 103.743C80.0282 103.91 79.3919 103.993 78.7451 103.993H58.4653C59.6337 102.866 60.3848 101.928 60.7186 101.176C61.3028 99.8411 61.5949 98.2868 61.5949 96.5133V63.2145H55.7426L56.9318 62.2443C59.6024 60.0536 61.2298 58.9582 61.814 58.9582H76.0849C75.8554 58.9582 75.2295 59.4068 74.2072 60.3039C73.1848 61.2011 72.4754 61.8061 72.079 62.1191C71.1193 62.8493 70.4308 63.2145 70.0135 63.2145H67.6976V94.3852Z" fill="#A2FF00"/>
<path d="M87.85 65.7862C89.2687 65.9336 90.458 66.0442 91.4177 66.1179C92.4192 66.1548 93.2329 66.2101 93.8588 66.2838C94.6099 66.3575 95.1941 66.3944 95.6114 66.3944C96.0704 66.4312 96.7589 66.4128 97.6769 66.3391C98.4697 66.2654 99.5338 66.1732 100.869 66.0626C102.246 65.9521 103.999 65.7862 106.127 65.565C105.167 66.3022 104.395 67.021 103.811 67.7214C103.268 68.3849 102.851 68.9747 102.559 69.4908C102.183 70.1174 101.954 70.7072 101.871 71.2601C101.704 72.1448 101.558 73.3612 101.432 74.9094C101.349 76.4207 101.265 78.0795 101.182 79.8857C101.099 81.6919 101.057 83.5534 101.057 85.4702C101.057 87.387 101.078 89.2116 101.119 90.9441C101.203 92.6398 101.328 94.1511 101.495 95.4781C101.704 96.8051 101.954 97.7635 102.246 98.3533C102.663 99.0168 103.102 99.6803 103.561 100.344C103.978 100.897 104.479 101.468 105.063 102.058C105.647 102.648 106.315 103.127 107.066 103.495C104.604 103.385 102.643 103.33 101.182 103.33H98.9287C98.2611 103.33 97.4057 103.366 96.3625 103.44C95.4862 103.514 94.3804 103.588 93.0451 103.661C91.7098 103.735 90.1033 103.846 88.2255 103.993C89.1852 103.072 89.9364 102.187 90.4788 101.339C91.0213 100.491 91.4594 99.754 91.7932 99.1274C92.1688 98.3901 92.4192 97.6898 92.5443 97.0263C92.7113 96.0679 92.8364 94.8883 92.9199 93.4876C93.0451 92.05 93.1285 90.5202 93.1703 88.8983C93.212 87.2395 93.212 85.5623 93.1703 83.8667C93.1703 82.1342 93.1285 80.4755 93.0451 78.8904C92.9616 77.3054 92.8364 75.8678 92.6695 74.5776C92.5443 73.2875 92.3774 72.2554 92.1688 71.4813C92.0436 71.0021 91.7932 70.4676 91.4177 69.8778C91.0839 69.3617 90.6249 68.772 90.0407 68.1084C89.4982 67.4081 88.768 66.634 87.85 65.7862Z" fill="#A2FF00"/>
<path d="M148.683 69.6648C148.683 72.857 148.078 75.6214 146.867 77.9582C145.678 80.295 143.999 82.2562 141.829 83.8418C139.659 85.4066 137.04 86.6272 133.973 87.5035C130.927 88.3798 127.547 88.9431 123.834 89.1934C124 90.8834 124.157 92.6151 124.303 94.3886C124.47 96.1411 124.668 97.998 124.898 99.9593L110.095 100.992C110.512 95.63 110.835 90.2992 111.065 84.9998C111.315 79.6795 111.44 74.3279 111.44 68.945C111.44 67.5471 111.43 66.2744 111.409 65.1269C111.409 63.9793 111.388 62.8631 111.347 61.7782C111.326 60.6933 111.284 59.577 111.221 58.4295C111.159 57.282 111.086 55.9989 111.002 54.5801C113.527 53.8082 116.093 53.2553 118.701 52.9214C121.33 52.5876 124.042 52.4207 126.838 52.4207C128.236 52.4207 129.749 52.4937 131.376 52.6398C133.003 52.7858 134.62 53.0779 136.227 53.5161C137.854 53.9542 139.409 54.5697 140.89 55.3625C142.392 56.1345 143.717 57.1568 144.864 58.4295C146.033 59.7022 146.961 61.267 147.65 63.1239C148.338 64.96 148.683 67.1402 148.683 69.6648ZM122.676 59.0242C122.676 61.0062 122.676 62.9466 122.676 64.8452C122.697 66.723 122.728 68.6007 122.77 70.4785C122.811 72.3354 122.863 74.2131 122.926 76.1117C123.009 78.0104 123.114 79.9611 123.239 81.9641H124.397C126.233 81.9641 128.079 81.9119 129.936 81.8076C131.793 81.6824 133.556 81.4738 135.225 81.1817C135.517 80.055 135.726 78.6363 135.851 76.9254C135.997 75.2146 136.07 73.389 136.07 71.4486C136.07 70.2385 136.039 69.018 135.976 67.787C135.914 66.556 135.83 65.3772 135.726 64.2506C135.622 63.1239 135.476 62.0807 135.288 61.121C135.121 60.1404 134.933 59.3058 134.725 58.6173C134.432 58.5756 134.088 58.5443 133.692 58.5234C133.316 58.5026 132.889 58.4921 132.409 58.4921C131.449 58.4921 130.406 58.5234 129.279 58.586C128.173 58.6486 127.12 58.7112 126.118 58.7738C124.971 58.8572 123.823 58.9407 122.676 59.0242Z" fill="#A2FF00"/>
</svg>
